<svg width="90" height="93" viewBox="0 0 90 93" fill="none" xmlns="http://www.w3.org/2000/svg">
<path d="M28.2472 20.8056L7.82792 25.7528L7.7614 25.7687L5.54175 27.7782L4.90289 28.3558L3.5333 28.1076L1.1088 27.6694L2.79834 21.9672L3.11513 11.0907L1.95358 4.43812L8.39498 0.00304828C8.39498 0.00304828 20.961 -0.736108 28.2472 20.8056Z" fill="#D0CDE1"/>
<path opacity="0.1" d="M7.82791 25.7528C7.55124 26.3431 8.13097 25.9534 7.81417 26.5606L4.85747 27.511L3.53329 28.1076L1.1088 27.6694L2.79833 21.9672L3.11512 11.0907L1.95357 4.43812L8.39497 0.00305176C8.39497 0.00305176 15.3084 9.794 7.82791 25.7528Z" fill="black"/>
<path d="M52.3232 5.17731C52.3232 5.17731 25.5016 17.6377 14.6252 19.5385C3.74869 21.4392 4.69907 32.3157 4.69907 32.3157L65.6284 22.812C65.6284 22.812 63.5164 12.9915 52.3232 5.17731Z" fill="#D0CDE1"/>
<path d="M0.580808 3.06536C0.580808 3.06536 5.22706 14.3642 0.0528259 28.4086L6.07184 31.1541L8.39497 28.4086L8.44775 28.1446L2.05915 27.5638C2.05915 27.5638 7.33898 13.4138 3.00952 3.59335C3.00953 3.59335 2.05916 1.48141 0.580808 3.06536Z" fill="#22AED1"/>
<path d="M89.1764 86.8036C65.4172 81.5237 43.2947 92.453 43.2947 92.453L43.2345 92.3992L34.4245 84.5333L0 28.3558L8.39494 28.4086C31.7318 14.4698 64.5724 16.3706 64.5724 16.3706C78.7224 32.4213 89.1764 86.8036 89.1764 86.8036Z" fill="#3F3D56"/>
<path opacity="0.1" d="M43.2345 92.3991L34.4245 84.5332L0 28.3558L8.39494 28.4086C8.39494 28.4086 41.8543 72.5997 43.2345 92.3991Z" fill="black"/>
<path d="M47.1009 48.5665C54.2934 46.3604 58.9873 40.8657 57.585 36.2937C56.1826 31.7218 49.2152 29.8038 42.0227 32.0099C34.8302 34.216 30.1363 39.7107 31.5387 44.2827C32.941 48.8546 39.9085 50.7726 47.1009 48.5665Z" fill="#EFEFEF"/>
</svg>
