<svg width="61" height="76" viewBox="0 0 61 76" fill="none" xmlns="http://www.w3.org/2000/svg">
<path d="M29.35 43.9C28.1833 45 26.5167 45.8833 24.35 46.55C22.2167 47.1833 20 47.5 17.7 47.5C13 47.5 9.11667 45.9833 6.05 42.95C3.01667 39.8833 1.5 35.95 1.5 31.15C1.5 28.45 2.06667 25.7833 3.2 23.15C4.33333 20.5167 6.1 18.3333 8.5 16.6C10.9 14.8667 13.9667 14 17.7 14C20.4333 14 22.7667 14.3833 24.7 15.15C26.6333 15.9167 28.1667 16.8167 29.3 17.85L30.15 24.9L25.6 25.35L24.8 20.85C22.8 19.55 20.4 18.9 17.6 18.9C14.5333 18.9 12.0667 19.9667 10.2 22.1C8.36667 24.2333 7.45 27.15 7.45 30.85C7.45 34.7167 8.43333 37.65 10.4 39.65C12.3667 41.6167 14.95 42.6 18.15 42.6C20.8167 42.6 23 42.1333 24.7 41.2L25.5 36.35L30.05 36.8L29.35 43.9Z" fill="#016FB9"/>
<path d="M58.95 35.25H54.85V58.25H58.55V63H46.1V58.25H49.3V42.7H49.1L39.65 60.7H37.15L27.2 42.25H27V58.25H30.4V63H18.1V58.25H21.8V35.25H17.7V30.5H26.5L38.5 52.65H38.7L50.1 30.5H58.95V35.25Z" fill="#016FB9"/>
</svg>
