<svg width="126" height="95" viewBox="0 0 126 95" fill="none" xmlns="http://www.w3.org/2000/svg">
<path d="M109.513 16.4755C108.863 17.0816 107.934 17.5684 106.728 17.9357C105.539 18.2847 104.305 18.4592 103.023 18.4592C100.406 18.4592 98.2425 17.6235 96.5344 15.952C94.8448 14.2622 94 12.0949 94 9.45C94 7.96224 94.3156 6.49286 94.9469 5.04184C95.5782 3.59082 96.5622 2.38775 97.899 1.43265C99.2359 0.477551 100.944 0 103.023 0C104.546 0 105.846 0.211225 106.923 0.633673C107.999 1.05612 108.853 1.55204 109.485 2.12143L109.958 6.00612L107.424 6.25408L106.978 3.77449C105.864 3.05816 104.527 2.7 102.968 2.7C101.26 2.7 99.8857 3.28776 98.846 4.46327C97.8248 5.63878 97.3142 7.24592 97.3142 9.28469C97.3142 11.4153 97.8619 13.0316 98.9574 14.1337C100.053 15.2173 101.492 15.7592 103.274 15.7592C104.76 15.7592 105.976 15.502 106.923 14.9878L107.368 12.3153L109.903 12.5633L109.513 16.4755Z" fill="#016FB9"/>
<path d="M126 11.7092H123.716V24.3827H125.777V27H118.842V24.3827H120.625V15.8143H120.513L115.25 25.7327H113.857L108.315 15.5663H108.204V24.3827H110.097V27H103.246V24.3827H105.307V11.7092H103.023V9.09184H107.925L114.609 21.2969H114.721L121.07 9.09184H126V11.7092Z" fill="#016FB9"/>
<g filter="url(#filter0_d)">
<ellipse cx="65.5" cy="87.5" rx="33.5" ry="2.5" fill="white"/>
</g>
<path d="M62.5326 76.3782C78.2441 76.3782 90.9808 63.6415 90.9808 47.93C90.9808 32.2185 78.2441 19.4819 62.5326 19.4819C46.8211 19.4819 34.0845 32.2185 34.0845 47.93C34.0845 63.6415 46.8211 76.3782 62.5326 76.3782Z" fill="#2F2E41"/>
<path d="M58.2113 70.2564H49.5688V85.7409H58.2113V70.2564Z" fill="#2F2E41"/>
<path d="M75.4965 70.2564H66.854V85.7409H75.4965V70.2564Z" fill="#2F2E41"/>
<path d="M56.7709 88.6217C60.7485 88.6217 63.973 87.4125 63.973 85.9209C63.973 84.4293 60.7485 83.2201 56.7709 83.2201C52.7933 83.2201 49.5688 84.4293 49.5688 85.9209C49.5688 87.4125 52.7933 88.6217 56.7709 88.6217Z" fill="#2F2E41"/>
<path d="M74.0561 88.2616C78.0337 88.2616 81.2582 87.0524 81.2582 85.5608C81.2582 84.0692 78.0337 82.86 74.0561 82.86C70.0785 82.86 66.854 84.0692 66.854 85.5608C66.854 87.0524 70.0785 88.2616 74.0561 88.2616Z" fill="#2F2E41"/>
<path d="M93.1882 35.4988C99.3491 29.3331 102.774 22.7669 100.839 20.8328C98.9033 18.8987 92.3397 22.3291 86.1788 28.4947C80.0178 34.6604 76.5925 41.2266 78.5281 43.1607C80.4637 45.0948 87.0273 41.6645 93.1882 35.4988Z" fill="#2F2E41"/>
<path d="M37.1406 61.9052C42.112 54.7457 44.32 47.6766 42.0724 46.1159C39.8248 44.5553 33.9727 49.0941 29.0014 56.2536C24.0301 63.4131 21.822 70.4822 24.0696 72.0429C26.3172 73.6035 32.1693 69.0647 37.1406 61.9052Z" fill="#2F2E41"/>
<path d="M61.3356 53.6213C66.7053 53.6213 71.0584 49.2683 71.0584 43.8986C71.0584 38.5288 66.7053 34.1758 61.3356 34.1758C55.9658 34.1758 51.6128 38.5288 51.6128 43.8986C51.6128 49.2683 55.9658 53.6213 61.3356 53.6213Z" fill="white"/>
<path d="M64.6384 43.8367C66.4283 43.8367 67.8794 42.3857 67.8794 40.5958C67.8794 38.8059 66.4283 37.3548 64.6384 37.3548C62.8485 37.3548 61.3975 38.8059 61.3975 40.5958C61.3975 42.3857 62.8485 43.8367 64.6384 43.8367Z" fill="#3F3D56"/>
<path d="M72.9926 61.8804C73.9464 65.3161 70.4722 68.6083 65.2327 69.2337C59.9932 69.8591 54.9726 67.581 54.0188 64.1453L54.0154 64.1331C53.0667 60.6968 57.1184 59.4808 62.3588 58.8588C67.5992 58.2367 72.0439 58.4442 72.9926 61.8804Z" fill="white"/>
<path d="M52.5788 31.1871C47.8871 33.068 42.9385 34.2304 37.9001 34.635C37.5487 34.6597 37.1984 34.5727 36.8994 34.3864C36.6005 34.2 36.368 33.9239 36.2354 33.5975L31.9155 22.8539C31.7527 22.4475 31.7576 21.9931 31.9294 21.5904C32.1011 21.1876 32.4256 20.8695 32.8316 20.7057L59.7975 9.86279C60.2039 9.69994 60.6583 9.70493 61.0611 9.87666C61.4638 10.0484 61.782 10.3729 61.9458 10.7789L66.2632 21.5162C66.3959 21.8458 66.4191 22.2094 66.3292 22.5531C66.2394 22.8969 66.0413 23.2026 65.7643 23.4251C61.7734 26.6448 57.3307 29.2601 52.5788 31.1871Z" fill="#016FB9"/>
<path opacity="0.2" d="M61.6391 10.9021L62.3611 12.6978L49.8265 23.6827C49.5916 23.8864 49.2928 24.0015 48.9819 24.008L32.8846 24.3793L32.2217 22.7307C32.092 22.4055 32.0963 22.0422 32.2336 21.7202C32.371 21.3982 32.6301 21.1436 32.9545 21.0121L59.9205 10.1692C60.2457 10.0396 60.6089 10.0439 60.9309 10.1812C61.253 10.3185 61.5075 10.5777 61.6391 10.9021Z" fill="black"/>
<path d="M48.5831 21.7702C48.3993 21.8443 48.2036 21.8847 48.0055 21.8895L23.9508 22.4455C23.6107 22.4533 23.2764 22.3559 22.9938 22.1666C22.7111 21.9773 22.4938 21.7053 22.3715 21.3878C22.2493 21.0703 22.2281 20.7228 22.3108 20.3928C22.3935 20.0628 22.5762 19.7664 22.8337 19.5442L39.7927 4.91027C40.0672 4.67494 40.4106 4.53514 40.7714 4.5119L65.6596 3.00303C66.0034 2.98219 66.3451 3.06936 66.6369 3.25235C66.9287 3.43534 67.156 3.70499 67.2869 4.02355C67.4179 4.34211 67.4459 4.69365 67.3672 5.02895C67.2884 5.36425 67.1068 5.66654 66.8477 5.8935L49.0552 21.4807C48.9152 21.6031 48.7556 21.701 48.5831 21.7702Z" fill="#016FB9"/>
<path d="M29.3505 28.8689L28.7375 29.1153L25.1646 20.2289L43.8568 12.7125L44.1032 13.3255L26.0233 20.5955L29.3505 28.8689Z" fill="#3F3D56"/>
<path d="M29.2903 30.9261C30.02 30.9261 30.6114 30.3346 30.6114 29.605C30.6114 28.8754 30.02 28.2839 29.2903 28.2839C28.5607 28.2839 27.9692 28.8754 27.9692 29.605C27.9692 30.3346 28.5607 30.9261 29.2903 30.9261Z" fill="#3F3D56"/>
<path d="M62.5326 76.3782C78.2441 76.3782 90.9808 63.6415 90.9808 47.93C90.9808 32.2185 78.2441 19.4819 62.5326 19.4819C46.8211 19.4819 34.0845 32.2185 34.0845 47.93C34.0845 63.6415 46.8211 76.3782 62.5326 76.3782Z" fill="#2F2E41"/>
<path d="M58.2113 70.2564H49.5688V85.7409H58.2113V70.2564Z" fill="#2F2E41"/>
<path d="M75.4965 70.2564H66.854V85.7409H75.4965V70.2564Z" fill="#2F2E41"/>
<path d="M93.1882 35.4988C99.3491 29.3331 102.774 22.7669 100.839 20.8328C98.9033 18.8987 92.3397 22.3291 86.1788 28.4947C80.0178 34.6604 76.5925 41.2266 78.5281 43.1607C80.4637 45.0948 87.0273 41.6645 93.1882 35.4988Z" fill="#2F2E41"/>
<path d="M37.1406 61.9052C42.112 54.7457 44.32 47.6766 42.0724 46.1159C39.8248 44.5553 33.9727 49.0941 29.0014 56.2536C24.0301 63.4131 21.822 70.4822 24.0696 72.0429C26.3172 73.6035 32.1693 69.0647 37.1406 61.9052Z" fill="#2F2E41"/>
<path d="M61.3356 53.6213C66.7053 53.6213 71.0584 49.2683 71.0584 43.8986C71.0584 38.5288 66.7053 34.1758 61.3356 34.1758C55.9658 34.1758 51.6128 38.5288 51.6128 43.8986C51.6128 49.2683 55.9658 53.6213 61.3356 53.6213Z" fill="white"/>
<path d="M64.6384 43.8367C66.4283 43.8367 67.8794 42.3857 67.8794 40.5958C67.8794 38.8059 66.4283 37.3548 64.6384 37.3548C62.8485 37.3548 61.3975 38.8059 61.3975 40.5958C61.3975 42.3857 62.8485 43.8367 64.6384 43.8367Z" fill="#3F3D56"/>
<path d="M72.9926 61.8804C73.9464 65.3161 70.4722 68.6083 65.2327 69.2337C59.9932 69.8591 54.9726 67.581 54.0188 64.1453L54.0154 64.1331C53.0667 60.6968 57.1184 59.4808 62.3588 58.8588C67.5992 58.2367 72.0439 58.4442 72.9926 61.8804Z" fill="white"/>
<path d="M52.5788 31.1871C47.8871 33.068 42.9385 34.2304 37.9001 34.635C37.5487 34.6597 37.1984 34.5727 36.8994 34.3864C36.6005 34.2 36.368 33.9239 36.2354 33.5975L31.9155 22.8539C31.7527 22.4475 31.7576 21.9931 31.9294 21.5904C32.1011 21.1876 32.4256 20.8695 32.8316 20.7057L59.7975 9.86279C60.2039 9.69994 60.6583 9.70493 61.0611 9.87666C61.4638 10.0484 61.782 10.3729 61.9458 10.7789L66.2632 21.5162C66.3959 21.8458 66.4191 22.2094 66.3292 22.5531C66.2394 22.8969 66.0413 23.2026 65.7643 23.4251C61.7734 26.6448 57.3307 29.2601 52.5788 31.1871Z" fill="#016FB9"/>
<path opacity="0.2" d="M61.6391 10.9021L62.3611 12.6978L49.8265 23.6827C49.5916 23.8864 49.2928 24.0015 48.9819 24.008L32.8846 24.3793L32.2217 22.7307C32.092 22.4055 32.0963 22.0422 32.2336 21.7202C32.371 21.3982 32.6301 21.1436 32.9545 21.0121L59.9205 10.1692C60.2457 10.0396 60.6089 10.0439 60.9309 10.1812C61.253 10.3185 61.5075 10.5777 61.6391 10.9021Z" fill="black"/>
<path d="M48.5831 21.7702C48.3993 21.8443 48.2036 21.8847 48.0055 21.8895L23.9508 22.4455C23.6107 22.4533 23.2764 22.3559 22.9938 22.1666C22.7111 21.9773 22.4938 21.7053 22.3715 21.3878C22.2493 21.0703 22.2281 20.7228 22.3108 20.3928C22.3935 20.0628 22.5762 19.7664 22.8337 19.5442L39.7927 4.91027C40.0672 4.67494 40.4106 4.53514 40.7714 4.5119L65.6596 3.00303C66.0034 2.98219 66.3451 3.06936 66.6369 3.25235C66.9287 3.43534 67.156 3.70499 67.2869 4.02355C67.4179 4.34211 67.4459 4.69365 67.3672 5.02895C67.2884 5.36425 67.1068 5.66654 66.8477 5.8935L49.0552 21.4807C48.9152 21.6031 48.7556 21.701 48.5831 21.7702Z" fill="#016FB9"/>
<path d="M29.3505 28.8689L28.7375 29.1153L25.1646 20.2289L43.8568 12.7125L44.1032 13.3255L26.0233 20.5955L29.3505 28.8689Z" fill="#3F3D56"/>
<path d="M29.2903 30.9261C30.02 30.9261 30.6114 30.3346 30.6114 29.605C30.6114 28.8754 30.02 28.2839 29.2903 28.2839C28.5607 28.2839 27.9692 28.8754 27.9692 29.605C27.9692 30.3346 28.5607 30.9261 29.2903 30.9261Z" fill="#3F3D56"/>
<path d="M5.26612 69.5545L10.7012 61.1696L31.7086 74.7866C34.1021 76.3381 34.8304 79.4812 33.332 81.7928C31.8335 84.1045 28.667 84.723 26.2735 83.1715L5.26612 69.5545Z" fill="white"/>
<path d="M10.1435 60.8995C10.199 60.814 10.2861 60.7541 10.3858 60.7328C10.4855 60.7115 10.5895 60.7307 10.6751 60.7861L32.2501 74.7711C33.4219 75.5306 34.244 76.7245 34.5355 78.0902C34.827 79.4558 34.564 80.8814 33.8045 82.0531C33.0449 83.2249 31.851 84.047 30.4853 84.3385C29.1197 84.63 27.6941 84.367 26.5224 83.6075L4.9473 69.6225C4.90492 69.5951 4.86835 69.5595 4.8397 69.518C4.81105 69.4764 4.79087 69.4296 4.78032 69.3802C4.76976 69.3308 4.76904 69.2799 4.77819 69.2302C4.78734 69.1806 4.80619 69.1332 4.83365 69.0908C4.86111 69.0485 4.89666 69.0119 4.93825 68.9833C4.97984 68.9547 5.02666 68.9345 5.07604 68.924C5.12542 68.9135 5.17639 68.9128 5.22603 68.922C5.27568 68.9311 5.32303 68.95 5.36538 68.9775L26.9404 82.9625C27.4359 83.2839 27.9899 83.5046 28.5707 83.6119C29.1516 83.7193 29.7478 83.7111 30.3255 83.5879C30.9031 83.4647 31.4509 83.229 31.9374 82.8941C32.4239 82.5591 32.8397 82.1317 33.1609 81.636C33.4822 81.1404 33.7027 80.5863 33.8098 80.0055C33.9169 79.4246 33.9085 78.8283 33.7851 78.2507C33.6616 77.6731 33.4257 77.1255 33.0906 76.6391C32.7554 76.1527 32.3278 75.7371 31.832 75.416L10.257 61.4311C10.1715 61.3756 10.1115 61.2885 10.0902 61.1888C10.069 61.0891 10.0881 60.9851 10.1435 60.8995Z" fill="#22AED1"/>
<path d="M6.52033 67.6193L29.0951 82.2523C29.1036 82.2578 29.1109 82.2649 29.1166 82.2732C29.1224 82.2815 29.1264 82.2909 29.1285 82.3008C29.1306 82.3106 29.1307 82.3208 29.1289 82.3308C29.1271 82.3407 29.1233 82.3502 29.1178 82.3586C29.1123 82.3671 29.1052 82.3744 29.0969 82.3801C29.0886 82.3859 29.0792 82.3899 29.0694 82.392C29.0595 82.3941 29.0493 82.3942 29.0394 82.3924C29.0295 82.3906 29.02 82.3868 29.0115 82.3813L6.43672 67.7483C6.42823 67.7428 6.42091 67.7357 6.41518 67.7274C6.40944 67.7191 6.4054 67.7097 6.40328 67.6999C6.40117 67.69 6.40102 67.6798 6.40285 67.6698C6.40468 67.6599 6.40845 67.6504 6.41395 67.6419C6.41944 67.6335 6.42655 67.6262 6.43487 67.6204C6.44319 67.6147 6.45256 67.6107 6.46244 67.6086C6.47232 67.6065 6.48252 67.6063 6.49246 67.6082C6.50239 67.61 6.51186 67.6138 6.52033 67.6193L6.52033 67.6193Z" fill="#22AED1"/>
<path d="M7.52383 66.0715L30.0986 80.7045C30.1157 80.7156 30.1277 80.733 30.1319 80.7529C30.1362 80.7728 30.1323 80.7936 30.1212 80.8107C30.1102 80.8278 30.0928 80.8398 30.0728 80.8441C30.0529 80.8483 30.0321 80.8445 30.015 80.8335L7.44021 66.2005C7.43173 66.195 7.42441 66.1879 7.41868 66.1796C7.41294 66.1713 7.4089 66.1619 7.40678 66.152C7.40467 66.1421 7.40452 66.1319 7.40635 66.122C7.40818 66.1121 7.41195 66.1026 7.41744 66.0941C7.42294 66.0856 7.43005 66.0783 7.43837 66.0726C7.44669 66.0669 7.45606 66.0628 7.46594 66.0607C7.47582 66.0586 7.48602 66.0585 7.49596 66.0603C7.50589 66.0622 7.51536 66.066 7.52383 66.0715Z" fill="#22AED1"/>
<path d="M8.52717 64.5235L31.102 79.1565C31.1191 79.1676 31.1311 79.185 31.1353 79.2049C31.1396 79.2249 31.1358 79.2457 31.1247 79.2628C31.1136 79.2799 31.0961 79.2919 31.0762 79.2961C31.0563 79.3004 31.0355 79.2966 31.0184 79.2855L8.44355 64.6525C8.43508 64.647 8.42777 64.6399 8.42205 64.6316C8.41633 64.6232 8.4123 64.6139 8.41019 64.604C8.40808 64.5941 8.40794 64.584 8.40977 64.574C8.4116 64.5641 8.41537 64.5546 8.42086 64.5462C8.42635 64.5377 8.43346 64.5304 8.44177 64.5247C8.45008 64.5189 8.45944 64.5149 8.46932 64.5128C8.47919 64.5107 8.48938 64.5106 8.49931 64.5124C8.50923 64.5142 8.5187 64.518 8.52717 64.5235L8.52717 64.5235Z" fill="#22AED1"/>
<path d="M9.53059 62.9756L32.1054 77.6086C32.1139 77.614 32.1212 77.6211 32.1269 77.6295C32.1326 77.6378 32.1366 77.6471 32.1388 77.657C32.1409 77.6669 32.141 77.6771 32.1392 77.687C32.1373 77.6969 32.1336 77.7064 32.1281 77.7149C32.1226 77.7233 32.1155 77.7306 32.1072 77.7364C32.0989 77.7421 32.0895 77.7461 32.0796 77.7482C32.0698 77.7503 32.0596 77.7505 32.0496 77.7486C32.0397 77.7468 32.0302 77.743 32.0218 77.7375L9.44697 63.1046C9.43849 63.0991 9.43117 63.092 9.42543 63.0836C9.4197 63.0753 9.41565 63.066 9.41354 63.0561C9.41142 63.0462 9.41127 63.036 9.4131 63.0261C9.41493 63.0161 9.41871 63.0067 9.4242 62.9982C9.42969 62.9897 9.4368 62.9824 9.44513 62.9767C9.45345 62.9709 9.46282 62.9669 9.4727 62.9648C9.48258 62.9627 9.49278 62.9626 9.50271 62.9644C9.51264 62.9663 9.52212 62.97 9.53059 62.9756Z" fill="#22AED1"/>
<defs>
<filter id="filter0_d" x="28" y="82" width="75" height="13" filterUnits="userSpaceOnUse" color-interpolation-filters="sRGB">
<feFlood flood-opacity="0" result="BackgroundImageFix"/>
<feColorMatrix in="SourceAlpha" type="matrix" values="0 0 0 0 0 0 0 0 0 0 0 0 0 0 0 0 0 0 127 0"/>
<feOffset dy="1"/>
<feGaussianBlur stdDeviation="2"/>
<feColorMatrix type="matrix" values="0 0 0 0 0 0 0 0 0 0 0 0 0 0 0 0 0 0 0.25 0"/>
<feBlend mode="normal" in2="BackgroundImageFix" result="effect1_dropShadow"/>
<feBlend mode="normal" in="SourceGraphic" in2="effect1_dropShadow" result="shape"/>
</filter>
</defs>
</svg>
